<svg width="76px" height="76px" viewBox="0 0 76 76" version="1.1">
<path d="M 37.917969 16.347656 C 32.449219 16.347656 26.992188 18.214844 22.550781 21.941406 C 19.875 24.1875 17.808594 26.917969 16.371094 29.910156 C 16.171875 29.890625 15.980469 29.847656 15.773438 29.847656 C 12.203125 29.847656 9.324219 32.722656 9.324219 36.292969 L 9.324219 44.265625 C 9.324219 47.835938 12.203125 50.714844 15.773438 50.714844 C 15.980469 50.714844 16.171875 50.667969 16.371094 50.652344 C 16.628906 51.183594 16.894531 51.710938 17.195312 52.230469 C 18.367188 54.324219 21.496094 52.53125 20.289062 50.460938 C 15.339844 41.890625 17.253906 31.027344 24.839844 24.664062 C 32.421875 18.300781 43.4375 18.300781 51.019531 24.664062 C 58.601562 31.027344 60.519531 41.890625 55.570312 50.460938 L 55.515625 50.550781 L 55.480469 50.640625 C 55.480469 50.640625 53.078125 55.957031 48.355469 55.957031 L 42.382812 55.90625 C 41.820312 55.085938 40.925781 54.515625 39.851562 54.515625 L 36 54.515625 C 34.273438 54.515625 32.886719 55.910156 32.886719 57.636719 C 32.886719 58.703125 33.5625 59.511719 35.109375 59.511719 L 48.355469 59.511719 C 55.441406 59.511719 58.503906 52.558594 58.644531 52.238281 L 58.644531 52.21875 C 58.941406 51.703125 59.203125 51.175781 59.457031 50.644531 C 59.664062 50.664062 59.867188 50.707031 60.082031 50.707031 C 63.65625 50.707031 66.53125 47.832031 66.53125 44.257812 L 66.53125 36.289062 C 66.53125 32.71875 63.65625 29.839844 60.082031 29.839844 C 59.875 29.839844 59.679688 29.875 59.480469 29.902344 C 58.046875 26.914062 55.988281 24.183594 53.3125 21.9375 C 48.867188 18.207031 43.386719 16.34375 37.917969 16.34375 Z M 30.148438 27.679688 C 28.757812 27.589844 27.492188 27.882812 26.382812 29.046875 C 23.429688 32.160156 21.601562 36.394531 21.601562 40.902344 C 21.601562 44.621094 22.847656 48.789062 24.941406 48.941406 C 27.921875 49.160156 32.628906 47.199219 37.929688 47.199219 C 43.542969 47.199219 48.5 49.398438 51.4375 48.878906 C 53.21875 48.5625 54.257812 44.304688 54.257812 40.902344 C 54.257812 36.394531 52.429688 32.160156 49.476562 29.046875 C 46.519531 25.9375 42.4375 29.046875 37.929688 29.046875 C 35.109375 29.046875 32.460938 27.832031 30.148438 27.679688 Z M 29.484375 35.34375 C 31.132812 35.347656 32.46875 36.679688 32.46875 38.328125 C 32.46875 39.976562 31.132812 41.3125 29.484375 41.3125 C 27.839844 41.3125 26.503906 39.976562 26.503906 38.328125 C 26.503906 36.679688 27.839844 35.347656 29.484375 35.34375 Z M 46.371094 35.34375 C 48.019531 35.347656 49.355469 36.679688 49.355469 38.328125 C 49.355469 39.976562 48.019531 41.3125 46.371094 41.3125 C 44.726562 41.3125 43.390625 39.976562 43.390625 38.328125 C 43.390625 36.679688 44.726562 35.347656 46.371094 35.34375 Z M 46.371094 35.34375 "/>
</svg>
